# AST/ASF file generated using VICON BodyLanguage
# -----------------------------------------------
:version 1.10
:name VICON
:units
  mass 1.0
  length 0.45
  angle deg
:documentation
   .ast/.asf automatically generated from VICON data using
   VICON BodyBuilder and BodyLanguage model FoxedUp or BRILLIANT.MOD
:root
   order TX TY TZ RX RY RZ
   axis XYZ
   position 0 0 0  
   orientation 0 0 0 
:bonedata
  begin
     id 1 
     name lhipjoint
     direction 0.662698 -0.695252 0.27831 
     length 2.53073 
     axis 0 0 0  XYZ
  end
  begin
     id 2 
     name lfemur
     direction 0.34202 -0.939693 0  
     length 7.16147  
     axis 0 0 20  XYZ
    dof rx ry rz
    limits (-160.0 20.0)
           (-70.0 70.0)
           (-60.0 70.0)
  end
  begin
     id 3 
     name ltibia
     direction 0.34202 -0.939693 0   
     length 7.63967   
     axis 0 0 20   XYZ
    dof rx
    limits (-10.0 170.0)
  end
  begin
     id 4 
     name lfoot
     direction 0.0938457 -0.257721 0.961651   
     length 1.89793   
     axis -90 7.62852e-016 20   XYZ
    dof rx rz
    limits (-45.0 90.0)
           (-70.0 20.0)
  end
  begin
     id 5 
     name ltoes
     direction -0.00116841 -0.0030592 0.999995   
     length 0.955649   
     axis -90 7.62852e-016 20   XYZ
    dof rx
    limits (-90.0 20.0)
  end
  begin
     id 6 
     name rhipjoint
     direction -0.649445 -0.705948 0.282592   
     length 2.49238  
     axis 0 0 0  XYZ 
  end
  begin
     id 7 
     name rfemur
     direction -0.34202 -0.939693 0   
     length 6.90728   
     axis 0 0 -20   XYZ
    dof rx ry rz
    limits (-160.0 20.0)
           (-70.0 70.0)
           (-70.0 60.0)
  end
  begin
     id 8 
     name rtibia
     direction -0.34202 -0.939693 0   
     length 7.72868   
     axis 0 0 -20   XYZ
    dof rx
    limits (-10.0 170.0)
 end
 begin
     id 9 
     name rfoot
     direction -0.0920068 -0.252865 0.963117   
     length 1.97476  
     axis -90 -7.62852e-016 -20   XYZ
    dof rx rz
    limits (-45.0 90.0)
           (-20.0 70.0)
  end
  begin
     id 10 
     name rtoes
     direction 0.000391322 0.00230649 0.999997   
     length 0.992641   
     axis -90 -7.62852e-016 -20   XYZ
    dof rx
    limits (-90.0 20.0)
  end
  begin
     id 11 
     name lowerback
     direction -0.00875327 0.998321 -0.0572635   
     length 2.20024   
     axis 0 0 0   XYZ
    dof rx ry rz
    limits (-20.0 45.0)
           (-30.0 30.0)
           (-30.0 30.0)
  end
  begin
     id 12 
     name upperback
     direction 0.00753931 0.999972 -0.000360425   
     length 2.20538   
     axis 0 0 0   XYZ
    dof rx ry rz
    limits (-20.0 45.0)
           (-30.0 30.0)
           (-30.0 30.0)
  end
  begin
     id 13 
     name thorax
     direction 0.0117767 0.999601 0.0256663   
     length 2.21508   
     axis 0 0 0   XYZ
    dof rx ry rz
    limits (-20.0 45.0)
           (-30.0 30.0)
           (-30.0 30.0)
  end
  begin
     id 14 
     name lowerneck
     direction 0.060228 0.994909 0.0807986   
     length 1.7607   
     axis 0 0 0   XYZ
    dof rx ry rz
    limits (-20.0 45.0)
           (-30.0 30.0)
           (-30.0 30.0)
  end
  begin
     id 15 
     name upperneck
     direction -0.0563647 0.959594 -0.275685   
     length 1.75612   
     axis 0 0 0   XYZ
    dof rx ry rz
    limits (-20.0 45.0)
           (-30.0 30.0)
           (-30.0 30.0)
  end
  begin
     id 16
     name head
     direction -0.0161544 0.99458 -0.102714  
     length 1.79288  
     axis 0 0 0   XYZ
    dof rx ry rz
    limits (-20.0 45.0)
           (-30.0 30.0)
           (-30.0 30.0)
  end
  begin
     id 17 
     name lclavicle
     direction 0.93913 0.332189 -0.087669  
     length 3.52087  
     axis 0 0 0   XYZ
    dof ry rz
    limits (-20.0 10.0)
           (0.0 20.0)
  end
  begin
     id 18 
     name lhumerus
     direction 1 -4.48974e-011 -2.70836e-027   
     length 5.35289   
     axis -180 -30 -90   XYZ
    dof rx ry rz
    limits (-60.0 90.0)
           (-90.0 90.0)
           (-90.0 90.0)
  end
  begin
     id 19
     name lradius
     direction 1 -4.48961e-011 -9.76021e-027   
     length 3.27727   
     axis -180 -30 -90   XYZ
    dof rx
    limits (-10.0 170.0)
  end
  begin
     id 20
     name lwrist
     direction 1 -4.49103e-011 -2.23668e-026   
     length 1.63864   
     axis 1.44924e-014 90 90   XYZ
    dof ry
    limits (-180.0 0.0)
 end
  begin
     id 21 
     name lhand
     direction 1 3.0697e-005 0.000161777   
     length 0.54443   
     axis 2.85318e-014 90 90   XYZ
    dof rx rz
    limits (-90.0 90.0)
           (-45.0 45.0)
  end
  begin
     id 22 
     name lfingers
     direction 1 -4.49027e-011 -8.9447e-026   
     length 0.438912   
     axis 5.70628e-014 90 90   XYZ
    dof rx
    limits (0.0 90.0)
  end
  begin
     id 23
     name lthumb
     direction 0.707058 2.6516e-005 0.707156   
     length 0.630274   
     axis -90 45 -3.53137e-014   XYZ
    dof rx rz
    limits (-45.0 45.0)
           (-45.0 45.0)
  end
  begin
     id 24 
     name rclavicle
     direction -0.95274 0.284984 -0.105215   
     length 3.43401  
     axis 0 0 0   XYZ 
    dof ry rz
    limits (-10.0 20.0)
           (-20.0 0.0)
  end
  begin
     id 25 
     name rhumerus
     direction -0.999999 -0.000575019 -0.00106829  
     length 5.52077   
     axis -180 30 90   XYZ
    dof rx ry rz
    limits (-90.0 60.0)
           (-90.0 90.0)
           (-90.0 90.0)
  end
  begin
     id 26 
     name rradius
     direction -1 -4.4879e-011 -6.35415e-027   
     length 3.32364   
     axis -180 30 90   XYZ
    dof rx
    limits (-10.0 170.0)
  end
  begin
     id 27 
     name rwrist
     direction -1 -4.49048e-011 -9.98542e-027   
     length 1.66182   
     axis 6.32482e-015 -90 -90   XYZ
    dof ry
    limits (-180.0 0.0)
  end
  begin
     id 28
     name rhand
     direction -1 -4.48978e-011 -1.99771e-026   
     length 0.732235   
     axis 1.27479e-014 -90 -90   XYZ
    dof rx rz
    limits (-90.0 90.0)
           (-45.0 45.0)
  end
  begin
     id 29
     name rfingers
     direction -1 -4.49144e-011 -3.99245e-026   
     length 0.590347   
     axis 2.5496e-014 -90 -90   XYZ
    dof rx
    limits (0.0 90.0)
  end
  begin
     id 30
     name rthumb
     direction -0.707107 -6.35121e-011 0.707107   
     length 0.847624   
     axis -90 -45 -2.82974e-014   XYZ
    dof rx rz
    limits (-45.0 45.0)
           (-45.0 45.0)
  end
:hierarchy
  begin
    root lhipjoint rhipjoint lowerback
    lhipjoint lfemur
    lfemur ltibia
    ltibia lfoot
    lfoot ltoes
    rhipjoint rfemur
    rfemur rtibia
    rtibia rfoot
    rfoot rtoes
    lowerback upperback
    upperback thorax
    thorax lowerneck lclavicle rclavicle
    lowerneck upperneck
    upperneck head
    lclavicle lhumerus
    lhumerus lradius
    lradius lwrist
    lwrist lhand lthumb
    lhand lfingers
    rclavicle rhumerus
    rhumerus rradius
    rradius rwrist
    rwrist rhand rthumb
    rhand rfingers
  end

#!OML:ASF G:\Work\Work\Patient Classification 1\Elijah\terrain1\Elijah.ASF
:FULLY-SPECIFIED
:DEGREES
340
root 14.3337 22.0199 20.2679 9.82862 1.20866 -2.12485
lowerback 4.83008 1.97891 7.95227
upperback 1.00276 3.11121 4.45296
thorax -1.49866 1.52156 -0.0269128
lowerneck -12.6046 14.0151 12.5902
upperneck 35.8537 23.3027 -12.9337
head 19.1627 9.84972 -3.00484
rclavicle 4.77083e-015 -7.95139e-015
rhumerus -27.2883 -1.83219 -77.6616
rradius 44.5765
rwrist -6.99642
rhand -14.8097 20.1547
rfingers 7.12502
rthumb 11.3482 -9.51824
lclavicle 4.77083e-015 -7.95139e-015
lhumerus -40.9683 15.4013 79.1634
lradius 33.2916
lwrist -1.2286
lhand -10.952 23.5665
lfingers 7.12502
lthumb 15.0667 52.9982
rfemur 5.49203 -6.7018 27.6321
rtibia 3.81667e-014
rfoot -3.55616 -5.31519
rtoes -4.26192
lfemur -37.0287 2.62825 -21.0451
ltibia 35.1331
lfoot -6.94302 -10.4719
ltoes -13.5466
341
root 14.3717 22.0271 20.4399 10.2468 1.6881 -2.09848
lowerback 3.43152 1.83263 8.34771
upperback 1.00746 2.76461 4.30119
thorax -0.702228 1.37356 -0.330134
lowerneck -12.6157 14.0055 12.5065
upperneck 35.8017 23.2081 -12.754
head 19.0526 9.82034 -2.93367
rclavicle 1.74931e-014 -6.36111e-015
rhumerus -27.6575 -1.64092 -77.7952
rradius 44.8924
rwrist -7.13713
rhand -14.8394 20.3812
rfingers 7.12502
rthumb 11.3196 -9.29336
lclavicle 1.74931e-014 -6.36111e-015
lhumerus -41.408 14.8161 79.3411
lradius 33.9816
lwrist -0.834254
lhand -11.1414 23.2989
lfingers 7.12502
lthumb 14.8843 52.7442
rfemur 5.67965 -7.11635 27.4083
rtibia -1.27222e-014
rfoot -3.64981 -5.26589
rtoes -4.7868
lfemur -36.7547 1.74588 -21.1227
ltibia 33.6018
lfoot -7.43171 -10.1991
ltoes -12.8541
342
root 14.3962 22.0169 20.5193 10.4072 1.95238 -2.43713
lowerback 2.96376 1.68458 8.82827
upperback 1.31024 2.49786 4.3235
thorax -0.121949 1.2667 -0.538637
lowerneck -12.9819 14.0734 12.3967
upperneck 35.5181 23.2553 -12.8134
head 18.979 9.79706 -2.89712
rclavicle 4.77083e-015 1.59028e-015
rhumerus -27.1906 -1.44488 -77.9283
rradius 45.1205
rwrist -7.19951
rhand -14.6623 20.157
rfingers 7.12502
rthumb 11.4904 -9.50813
lclavicle 4.77083e-015 1.59028e-015
lhumerus -40.7214 15.0174 79.5327
lradius 33.8974
lwrist -0.866474
lhand -11.22 23.2323
lfingers 7.12502
lthumb 14.8085 52.6832
rfemur 5.7761 -7.29011 27.6809
rtibia 3.49861e-014
rfoot -3.62047 -5.12286
rtoes -5.96078
lfemur -36.512 0.768505 -20.6088
ltibia 32.0583
lfoot -7.83436 -9.32795
ltoes -14.549
343
root 14.3606 22.0094 20.6474 10.102 1.01572 -2.54895
lowerback 2.50892 1.90529 7.94596
upperback 1.89652 2.66572 4.44204
thorax 0.706456 1.38132 0.0960842
lowerneck -13.2555 14.2185 12.545
upperneck 35.3057 23.4216 -12.9609
head 19.0191 9.84709 -2.91339
rclavicle -7.55382e-015 -2.06736e-014
rhumerus -26.677 -1.08808 -78.0814
rradius 45.1857
rwrist -7.20055
rhand -14.5529 19.9662
rfingers 7.12502
rthumb 11.596 -9.69294
lclavicle -7.55382e-015 -2.06736e-014
lhumerus -39.7016 15.3476 79.6698
lradius 33.0708
lwrist -1.08762
lhand -11.1543 23.2174
lfingers 7.12502
lthumb 14.8718 52.6636
rfemur 6.55558 -6.39552 27.7435
rtibia -6.36111e-015
rfoot -3.60429 -5.03437
rtoes -7.12205
lfemur -35.6543 0.663723 -20.1314
ltibia 30.8904
lfoot -8.6811 -8.11048
ltoes -17.5587
344
root 14.3584 22.0086 20.7059 9.8825 0.605095 -1.57247
lowerback 3.77225 1.85966 6.54336
upperback 1.4889 2.73749 4.17583
thorax -0.477123 1.37339 0.53041
lowerneck -12.909 14.2667 12.7839
upperneck 35.5887 23.4582 -12.7945
head 19.1122 9.9231 -2.89523
rclavicle 1.74931e-014 2.22639e-014
rhumerus -27.4274 -0.671215 -78.1765
rradius 45.3393
rwrist -7.03074
rhand -14.5446 20.2098
rfingers 7.12502
rthumb 11.6039 -9.44893
lclavicle 1.74931e-014 2.22639e-014
lhumerus -40.1646 15.1992 79.5442
lradius 32.7979
lwrist -1.14378
lhand -11.0056 22.8709
lfingers 7.12502
lthumb 15.0151 52.3065
rfemur 7.07438 -6.18917 26.5852
rtibia 1.59028e-014
rfoot -3.36196 -4.87125
rtoes -7.56646
lfemur -35.1041 -0.0654324 -20.9656
ltibia 29.8793
lfoot -8.61266 -7.02507
ltoes -16.5941
345
root 14.3735 22.0025 20.8597 9.95558 0.717854 -1.76196
lowerback 3.02841 1.79001 6.70042
upperback 1.54444 2.57126 4.16403
thorax -0.00144404 1.30323 0.465741
lowerneck -12.9307 14.2269 12.7151
upperneck 35.8161 23.3471 -12.5434
head 19.1594 9.88749 -2.806
rclavicle -1.55052e-014 -1.27222e-014
rhumerus -27.7299 -0.557728 -78.2425
rradius 45.5019
rwrist -6.90031
rhand -14.4291 20.2497
rfingers 7.12502
rthumb 11.7153 -9.40271
lclavicle -1.55052e-014 -1.27222e-014
lhumerus -40.2662 15.1049 79.5493
lradius 32.9827
lwrist -1.40997
lhand -10.0111 23.8438
lfingers 7.12502
lthumb 15.973 53.2052
rfemur 7.59843 -6.25025 26.6114
rtibia 2.8625e-014
rfoot -3.43071 -4.56402
rtoes -7.31107
lfemur -34.6134 -0.57089 -20.7407
ltibia 29.2125
lfoot -8.79719 -6.74256
ltoes -15.7943
346
root 14.4184 21.9873 20.9937 10.1499 1.52436 -2.10842
lowerback 1.99475 1.52369 7.57784
upperback 1.72502 2.1108 4.12817
thorax 0.782666 1.10315 -0.00727111
lowerneck -13.1792 14.2022 12.6749
upperneck 35.9515 23.2831 -12.4581
head 19.2668 9.84178 -2.76428
rclavicle 2.0276e-014 6.52014e-014
rhumerus -27.5709 -0.559874 -78.2781
rradius 45.5153
rwrist -6.84321
rhand -14.2639 20.0648
rfingers 7.12502
rthumb 11.8746 -9.57845
lclavicle 2.0276e-014 6.52014e-014
lhumerus -39.6758 15.2043 79.6632
lradius 32.7949
lwrist -1.90311
lhand -9.19568 25.1303
lfingers 7.12502
lthumb 16.7581 54.4271
rfemur 7.92773 -6.94268 26.7825
rtibia 9.54166e-015
rfoot -3.40468 -4.28937
rtoes -6.02623
lfemur -34.3001 -1.21463 -20.6163
ltibia 28.6804
lfoot -8.69364 -6.90281
ltoes -15.4712
